<svg height="496pt" viewBox="0 0 496 496" width="496pt" xmlns="http://www.w3.org/2000/svg"><path d="m64 216 16 72h336l16-72zm0 0" fill="#f0bc5e"/><path d="m90.425781 96h-42.425781v-96h42.425781l2.015625 1.34375c14.382813 9.585938 31.117188 14.65625 48.398438 14.65625h19.160156v64h-19.160156c-17.28125 0-34.023438 5.070312-48.40625 14.65625zm0 0" fill="#f0bc5e"/><path d="m464 304h-112v144h112zm-16 32h-16v-16h16zm-32 16v16h-16v-16zm-16-16v-16h16v16zm-16 32h-16v-16h16zm0 16v16h-16v-16zm16 0h16v16h-16zm32 0h16v16h-16zm0-16v-16h16v16zm-48-48v16h-16v-16zm-16 96h48v16h-48zm64 16v-16h16v16zm0 0"/><path d="m32 448h304v-144h-304zm16-32h32v16h-32zm144-16v-16h32v16zm0-32v-16h32v16zm-16 0h-32v-16h32zm0 16v16h-32v-16zm-48 16h-32v-16h32zm144 16v16h-176v-16zm-32-16v-16h32v16zm48-16h32v16h-32zm0-16v-16h32v16zm-16 0h-32v-16h32zm-32-32v-16h32v16zm-16 0h-32v-16h32zm-48 0h-32v-16h32zm-48 0h-32v-16h32zm0 16v16h-32v-16zm-48 16h-32v-16h32zm0 16v16h-32v-16zm208 48v-16h32v16zm32-96h-32v-16h32zm-240-16v16h-32v-16zm0 0"/><path d="m112 240h16v16h-16zm0 0"/><path d="m144 240h16v16h-16zm0 0"/><path d="m176 240h16v16h-16zm0 0"/><path d="m352 240h32v16h-32zm0 0"/><path d="m304 240h32v16h-32zm0 0"/><path d="m48 64h-32v-32h32v-16h-48v64h48zm0 0"/><path d="m280 144h176c22.054688 0 40-17.945312 40-40v-24c0-22.054688-17.945312-40-40-40h-56v-16h-16v32h72c13.230469 0 24 10.769531 24 24v24c0 13.230469-10.769531 24-24 24h-176c-22.054688 0-40 17.945312-40 40v8h-8c-13.230469 0-24 10.769531-24 24v8h-154.425781l-53.574219 35.71875v215.59375l36.6875 36.6875h117.738281l24-16h139.160157l24 16h117.734374l36.679688-36.6875v-215.59375l-53.574219-35.71875h-154.425781v-8c0-13.230469-10.769531-24-24-24h-8v-8c0-13.230469 10.769531-24 24-24zm-8 56v8h-32v16h197.574219l42.425781 28.28125v200.40625l-27.3125 27.3125h-106.261719l-24-16h-148.851562l-24 16h-106.261719l-27.3125-27.3125v-200.40625l42.425781-28.28125h165.574219v-24c0-4.414062 3.59375-8 8-8h32c4.40625 0 8 3.585938 8 8zm0 0"/><path d="m352 24h16v48h-16zm0 0"/><path d="m320 24h16v48h-16zm0 0"/><path d="m288 72h16v-32h-144v16h128zm0 0"/></svg>